{"title":"Rang Rasiya (2014) [1CD] PreDVD Rip Xvid Mp3 Team TellyTNT Exclu","uid":11405426,"size":736689249,"categoryP":"video","categoryS":"movies","magnet":"?xt=urn:btih:84dd7986d8138c94265b62c4ecfc65cdc7342cd5&amp;dn=Rang+Rasiya+%282014%29+%5B1CD%5D+PreDVD+Rip+Xvid+Mp3+Team+TellyTNT+Exclu&amp;tr=udp%3A%2F%2Ftracker.openbittorrent.com%3A80&amp;tr=udp%3A%2F%2Fopen.demonii.com%3A1337&amp;tr=udp%3A%2F%2Ftracker.coppersurfer.tk%3A6969&amp;tr=udp%3A%2F%2Fexodus.desync.com%3A6969","seeders":15,"leechers":7,"uploader":"inovai","files":20,"time":1415471939,"description":"Rang Rasiya (2014) [1CD] PreDVD Rip Xvid Mp3 Team TellyTNT Exclusive\n\nCover:\n &lt;a href=&quot;\nhttp://forum.primetimeshow.in/viewtopic.php?f=7&amp;t=811&quot; rel=&quot;nofollow&quot; target=&quot;_NEW&quot;&gt;\nhttp://forum.primetimeshow.in/viewtopic.php?f=7&amp;t=811&lt;/a&gt;\n\nMovie:............Rang Rasiya\nSource: ..........PreDVD @ Team TellyTNT\nYear:.............2014\n\nScreenshots:\n &lt;a href=&quot;\nhttp://m.primetimeshow.in/share-BB29_545E53A2.html&quot; rel=&quot;nofollow&quot; target=&quot;_NEW&quot;&gt;\nhttp://m.primetimeshow.in/share-BB29_545E53A2.html&lt;/a&gt;\n &lt;a href=&quot;\nhttp://m.primetimeshow.in/share-4FE6_545E53A2.html&quot; rel=&quot;nofollow&quot; target=&quot;_NEW&quot;&gt;\nhttp://m.primetimeshow.in/share-4FE6_545E53A2.html&lt;/a&gt;\n &lt;a href=&quot;\nhttp://m.primetimeshow.in/share-C059_545E53A2.html&quot; rel=&quot;nofollow&quot; target=&quot;_NEW&quot;&gt;\nhttp://m.primetimeshow.in/share-C059_545E53A2.html&lt;/a&gt;\n &lt;a href=&quot;\nhttp://m.primetimeshow.in/share-4B9D_545E53A2.html&quot; rel=&quot;nofollow&quot; target=&quot;_NEW&quot;&gt;\nhttp://m.primetimeshow.in/share-4B9D_545E53A2.html&lt;/a&gt;\n &lt;a href=&quot;\nhttp://m.primetimeshow.in/share-A777_545E53A2.html&quot; rel=&quot;nofollow&quot; target=&quot;_NEW&quot;&gt;\nhttp://m.primetimeshow.in/share-A777_545E53A2.html&lt;/a&gt;\n\nGeneral\nComplete name : D:Rang Rasiya.avi\nFormat : AVI\nFormat/Info : Audio Video Interleave\nFile size : 696 MiB\nDuration : 1h 52mn\nOverall bit rate : 865 Kbps\n\nVideo\nID : 0\nFormat : MPEG-4 Visual\nFormat profile : Advanced Simple@L5\nFormat settings, BVOP : 2\nFormat settings, QPel : No\nFormat settings, GMC : No warppoints\nFormat settings, Matrix : Default (H.263)\nCodec ID : XVID\nCodec ID/Hint : XviD\nDuration : 1h 52mn\nBit rate : 763 Kbps\nWidth : 656 pixels\nHeight : 256 pixels\nDisplay aspect ratio : 2.563\nFrame rate : 25.000 fps\nColor space : YUV\nChroma subsampling : 4:2:0\nBit depth : 8 bits\nScan type : Progressive\nCompression mode : Lossy\nBits/(Pixel*Frame) : 0.182\nStream size : 614 MiB (88%)\nWriting library : XviD 1.2.1 (UTC 2008-12-04)\n\nAudio\nID : 1\nFormat : MPEG Audio\nFormat version : Version 1\nFormat profile : Layer 3\nMode : Joint stereo\nMode extension : MS Stereo\nCodec ID : 55\nCodec ID/Hint : MP3\nDuration : 1h 52mn\nBit rate mode : Constant\nBit rate : 96.0 Kbps\nChannel(s) : 2 channels\nSampling rate : 32.0 KHz\nCompression mode : Lossy\nStream size : 77.2 MiB (11%)\nAlignment : Aligned on interleaves\nInterleave, duration : 160 ms (4.00 video frames)\nInterleave, preload duration : 216 ms\nTitle : rang T01 DELAY 0ms\nWriting library : LAMEÂª\n\n\nSample included in torrent!!\n\nThanks to Team TellyTNT!!\n\nSeed n ENjoy!!","torrent":{"xt":"urn:btih:84dd7986d8138c94265b62c4ecfc65cdc7342cd5","amp;dn":"Rang+Rasiya+%282014%29+%5B1CD%5D+PreDVD+Rip+Xvid+Mp3+Team+TellyTNT+Exclu","amp;tr":["udp%3A%2F%2Ftracker.openbittorrent.com%3A80","udp%3A%2F%2Fopen.demonii.com%3A1337","udp%3A%2F%2Ftracker.coppersurfer.tk%3A6969","udp%3A%2F%2Fexodus.desync.com%3A6969"],"infoHash":"84dd7986d8138c94265b62c4ecfc65cdc7342cd5","infoHashBuffer":{"type":"Buffer","data":[132,221,121,134,216,19,140,148,38,91,98,196,236,252,101,205,199,52,44,213]},"announce":[],"urlList":[]}}